<svg aria-hidden="true" style="position: absolute; width: 0; height: 0; overflow: hidden;" version="1.1" xmlns="http://www.w3.org/2000/svg" xmlns:xlink="http://www.w3.org/1999/xlink">
<defs>
<symbol id="icon-close" viewBox="0 0 32 32">
<path fill="none" stroke="#fdfdfd" style="stroke: var(--color1, #fdfdfd)" stroke-linejoin="round" stroke-linecap="round" stroke-miterlimit="4" stroke-width="2" d="M2.5 2.5l13.5 13.5M16 16l-13.5 13.5M16 16l13.5 13.5M16 16l13.5-13.5"></path>
</symbol>
<symbol id="icon-stateclose" viewBox="0 0 32 32">
<path fill="none" stroke="#ffc954" style="stroke: var(--color2, #ffc954)" stroke-linejoin="miter" stroke-linecap="butt" stroke-miterlimit="4" stroke-width="1.3333" d="M1.333 0.667h29.333c0.368 0 0.667 0.298 0.667 0.667v29.333c0 0.368-0.298 0.667-0.667 0.667h-29.333c-0.368 0-0.667-0.298-0.667-0.667v-29.333c0-0.368 0.298-0.667 0.667-0.667z"></path>
<path fill="none" stroke="#fdfdfd" style="stroke: var(--color1, #fdfdfd)" stroke-linejoin="round" stroke-linecap="round" stroke-miterlimit="4" stroke-width="1.3333" d="M7 7l9 9M16 16l-9 9M16 16l9 9M16 16l9-9"></path>
</symbol>
<symbol id="icon-stateburger" viewBox="0 0 32 32">
<path fill="none" stroke="#ffc954" style="stroke: var(--color2, #ffc954)" stroke-linejoin="miter" stroke-linecap="butt" stroke-miterlimit="4" stroke-width="1.3333" d="M1.333 0.667h29.333c0.368 0 0.667 0.298 0.667 0.667v29.333c0 0.368-0.298 0.667-0.667 0.667h-29.333c-0.368 0-0.667-0.298-0.667-0.667v-29.333c0-0.368 0.298-0.667 0.667-0.667z"></path>
<path fill="none" stroke="#fdfdfd" style="stroke: var(--color1, #fdfdfd)" stroke-linejoin="miter" stroke-linecap="round" stroke-miterlimit="4" stroke-width="1.3333" d="M7.5 9.5h17M7.5 21.5h17M7.5 15.5h17"></path>
</symbol>
<symbol id="icon-menu-icon" viewBox="0 0 32 32">
<path stroke-linejoin="round" stroke-linecap="round" stroke-miterlimit="4" stroke-width="2.2857" d="M4 16h24M4 8h24M4 24h24"></path>
</symbol>
</defs>
</svg>
