<svg aria-hidden="true" style="position: absolute; width: 0; height: 0; overflow: hidden;" version="1.1" xmlns="http://www.w3.org/2000/svg" xmlns:xlink="http://www.w3.org/1999/xlink">
<defs>
<symbol id="icon-arrow_left" viewBox="0 0 30 32">
<path fill="#ffc954" style="fill: var(--color1, #ffc954)" d="M1.684 0h26.947c0.93 0 1.684 0.754 1.684 1.684v28.632c0 0.93-0.754 1.684-1.684 1.684h-26.947c-0.93 0-1.684-0.754-1.684-1.684v-28.632c0-0.93 0.754-1.684 1.684-1.684z"></path>
<path fill="#1c1c1c" style="fill: var(--color2, #1c1c1c)" d="M23.579 3.368h-4.211v3.715h4.211v-3.715z"></path>
<path fill="#1c1c1c" style="fill: var(--color2, #1c1c1c)" d="M19.368 7.084h-4.211v3.715h4.211v-3.715z"></path>
<path fill="#1c1c1c" style="fill: var(--color2, #1c1c1c)" d="M15.158 10.799h-4.211v3.715h4.211v-3.715z"></path>
<path fill="#1c1c1c" style="fill: var(--color2, #1c1c1c)" d="M10.947 14.514h-4.211v3.715h4.211v-3.715z"></path>
<path fill="#1c1c1c" style="fill: var(--color2, #1c1c1c)" d="M23.579 24.916h-4.211v3.715h4.211v-3.715z"></path>
<path fill="#1c1c1c" style="fill: var(--color2, #1c1c1c)" d="M19.368 21.201h-4.211v3.715h4.211v-3.715z"></path>
<path fill="#1c1c1c" style="fill: var(--color2, #1c1c1c)" d="M15.158 17.486h-4.211v3.715h4.211v-3.715z"></path>
</symbol>
<symbol id="icon-close" viewBox="0 0 32 32">
<path fill="none" stroke="#fdfdfd" style="stroke: var(--color3, #fdfdfd)" stroke-linejoin="round" stroke-linecap="round" stroke-miterlimit="4" stroke-width="2" d="M2.5 2.5l13.5 13.5M16 16l-13.5 13.5M16 16l13.5 13.5M16 16l13.5-13.5"></path>
</symbol>
<symbol id="icon-stateclose" viewBox="0 0 32 32">
<path fill="none" stroke="#ffc954" style="stroke: var(--color1, #ffc954)" stroke-linejoin="miter" stroke-linecap="butt" stroke-miterlimit="4" stroke-width="1.3333" d="M1.333 0.667h29.333c0.368 0 0.667 0.298 0.667 0.667v29.333c0 0.368-0.298 0.667-0.667 0.667h-29.333c-0.368 0-0.667-0.298-0.667-0.667v-29.333c0-0.368 0.298-0.667 0.667-0.667z"></path>
<path fill="none" stroke="#fdfdfd" style="stroke: var(--color3, #fdfdfd)" stroke-linejoin="round" stroke-linecap="round" stroke-miterlimit="4" stroke-width="1.3333" d="M7 7l9 9M16 16l-9 9M16 16l9 9M16 16l9-9"></path>
</symbol>
<symbol id="icon-stateburger" viewBox="0 0 32 32">
<path fill="none" stroke="#ffc954" style="stroke: var(--color1, #ffc954)" stroke-linejoin="miter" stroke-linecap="butt" stroke-miterlimit="4" stroke-width="1.3333" d="M1.333 0.667h29.333c0.368 0 0.667 0.298 0.667 0.667v29.333c0 0.368-0.298 0.667-0.667 0.667h-29.333c-0.368 0-0.667-0.298-0.667-0.667v-29.333c0-0.368 0.298-0.667 0.667-0.667z"></path>
<path fill="none" stroke="#fdfdfd" style="stroke: var(--color3, #fdfdfd)" stroke-linejoin="miter" stroke-linecap="round" stroke-miterlimit="4" stroke-width="1.3333" d="M7.5 9.5h17M7.5 21.5h17M7.5 15.5h17"></path>
</symbol>
<symbol id="icon-menu-icon" viewBox="0 0 32 32">
<path stroke-linejoin="round" stroke-linecap="round" stroke-miterlimit="4" stroke-width="2.2857" d="M4 16h24M4 8h24M4 24h24"></path>
</symbol>
</defs>
</svg>
