<svg aria-hidden="true" style="position: absolute; width: 0; height: 0; overflow: hidden;" version="1.1" xmlns="http://www.w3.org/2000/svg" xmlns:xlink="http://www.w3.org/1999/xlink">
<defs>
<symbol id="icon-Text" viewBox="0 0 106 32">
<path d="M82.232 26.998h2.329v-15.341h-2.329v15.341zM103.207 17.183l-2.67 6.651h-0.080l-2.77-6.651h-2.508l4.154 9.296-2.369 5.171h2.43l6.402-14.467h-2.589zM90.001 25.255c-0.764 0-1.827-0.374-1.827-1.302 0-1.184 1.325-1.638 2.469-1.638 1.025 0 1.505 0.217 2.128 0.513-0.181 1.421-1.425 2.427-2.769 2.427zM90.281 16.848c-1.686 0-3.432 0.73-4.154 2.349l2.066 0.848c0.442-0.848 1.264-1.125 2.128-1.125 1.204 0 2.428 0.711 2.448 1.975v0.157c-0.422-0.237-1.324-0.591-2.429-0.591-2.228 0-4.496 1.204-4.496 3.453 0 2.053 1.827 3.376 3.874 3.376 1.566 0 2.428-0.691 2.971-1.501h0.080v1.184h2.247v-5.881c0-2.724-2.066-4.244-4.736-4.244zM75.89 19.051h-3.312v-5.258h3.312c1.74 0 2.729 1.417 2.729 2.629 0 1.189-0.989 2.63-2.729 2.63zM75.83 11.657h-5.58v15.341h2.328v-5.812h3.252c2.581 0 5.118-1.838 5.118-4.765s-2.537-4.764-5.118-4.764zM45.404 25.258c-1.609 0-2.955-1.324-2.955-3.143 0-1.838 1.347-3.183 2.955-3.183 1.589 0 2.834 1.345 2.834 3.183 0 1.819-1.245 3.143-2.834 3.143zM48.077 18.042h-0.080c-0.523-0.612-1.527-1.166-2.794-1.166-2.654 0-5.087 2.292-5.087 5.239 0 2.926 2.432 5.2 5.087 5.2 1.267 0 2.271-0.553 2.794-1.187h0.080v0.751c0 1.998-1.084 3.066-2.834 3.066-1.428 0-2.312-1.009-2.674-1.859l-2.030 0.831c0.583 1.384 2.131 3.084 4.705 3.084 2.734 0 5.047-1.582 5.047-5.436v-9.372h-2.213v0.85zM51.898 26.998h2.332v-15.342h-2.332v15.342zM57.668 21.937c-0.060-2.016 1.589-3.045 2.774-3.045 0.926 0 1.71 0.454 1.97 1.107l-4.745 1.938zM64.906 20.197c-0.442-1.166-1.79-3.321-4.544-3.321-2.734 0-5.006 2.114-5.006 5.219 0 2.926 2.251 5.219 5.266 5.219 2.434 0 3.841-1.463 4.424-2.313l-1.809-1.187c-0.603 0.87-1.428 1.443-2.614 1.443-1.186 0-2.030-0.534-2.573-1.581l7.097-2.886-0.241-0.594zM8.364 18.478v2.214h5.387c-0.161 1.246-0.583 2.155-1.225 2.788-0.785 0.771-2.012 1.62-4.162 1.62-3.317 0-5.912-2.629-5.912-5.891 0-3.263 2.594-5.892 5.912-5.892 1.79 0 3.096 0.692 4.061 1.582l1.589-1.562c-1.348-1.265-3.136-2.235-5.649-2.235-4.544 0-8.364 3.639-8.364 8.107s3.82 8.106 8.364 8.106c2.452 0 4.302-0.79 5.749-2.274 1.488-1.463 1.951-3.518 1.951-5.18 0-0.514-0.040-0.988-0.121-1.383h-7.579zM22.19 25.258c-1.609 0-2.996-1.305-2.996-3.163 0-1.879 1.388-3.164 2.996-3.164 1.607 0 2.995 1.285 2.995 3.164 0 1.858-1.388 3.163-2.995 3.163zM22.19 16.876c-2.936 0-5.329 2.194-5.329 5.219 0 3.004 2.392 5.219 5.329 5.219 2.935 0 5.327-2.215 5.327-5.219 0-3.025-2.392-5.219-5.327-5.219zM33.812 25.258c-1.609 0-2.996-1.305-2.996-3.163 0-1.879 1.388-3.164 2.996-3.164s2.995 1.285 2.995 3.164c0 1.858-1.386 3.163-2.995 3.163zM33.812 16.876c-2.935 0-5.327 2.194-5.327 5.219 0 3.004 2.392 5.219 5.327 5.219s5.327-2.215 5.327-5.219c0-3.025-2.392-5.219-5.327-5.219z"></path>
<path d="M48.98 8.49h-1.126l-4.278-6.542v6.542h-1.126v-8.49h1.126l4.29 6.571v-6.571h1.115v8.49z"></path>
<path d="M41.796 4.512c0 0.81-0.134 1.517-0.402 2.122-0.268 0.602-0.647 1.061-1.138 1.379s-1.063 0.477-1.718 0.477c-0.639 0-1.206-0.159-1.701-0.477-0.495-0.322-0.879-0.778-1.154-1.368-0.271-0.594-0.411-1.281-0.418-2.060v-0.596c0-0.794 0.136-1.496 0.407-2.105s0.654-1.074 1.149-1.396c0.498-0.325 1.067-0.488 1.706-0.488 0.651 0 1.223 0.161 1.718 0.482 0.498 0.318 0.881 0.781 1.149 1.39 0.268 0.605 0.402 1.311 0.402 2.117v0.522zM40.731 3.978c0-0.98-0.193-1.731-0.58-2.253-0.387-0.526-0.928-0.789-1.623-0.789-0.677 0-1.21 0.263-1.601 0.789-0.387 0.522-0.586 1.248-0.597 2.179v0.607c0 0.95 0.195 1.697 0.586 2.242 0.394 0.541 0.935 0.812 1.623 0.812 0.692 0 1.227-0.255 1.606-0.766 0.379-0.514 0.574-1.25 0.586-2.208v-0.613z"></path>
<path d="M32.653 0.921h-2.714v7.569h-1.108v-7.569h-2.709v-0.921h6.531v0.921z"></path>
<path d="M25.469 8.49h-1.306v-8.49h1.306v8.49z"></path>
<path d="M20.898 0.921h-2.714v7.569h-1.108v-7.569h-2.709v-0.921h6.531v0.921z"></path>
<path d="M12.485 4.566h-3.564v3.009h4.14v0.915h-5.224v-8.49h5.168v0.921h-4.084v2.729h3.564v0.915z"></path>
<path d="M6.531 7.292c-0.287 0.401-0.689 0.702-1.205 0.902-0.512 0.197-1.11 0.295-1.793 0.295-0.691 0-1.304-0.157-1.839-0.471-0.535-0.318-0.951-0.768-1.246-1.351-0.291-0.583-0.44-1.258-0.448-2.026v-0.721c0-1.245 0.297-2.209 0.891-2.894 0.598-0.685 1.436-1.027 2.514-1.027 0.885 0 1.597 0.221 2.136 0.664 0.539 0.439 0.869 1.063 0.989 1.873h-1.118c-0.21-1.093-0.877-1.64-2.002-1.64-0.749 0-1.317 0.257-1.705 0.772-0.384 0.511-0.578 1.252-0.582 2.225v0.675c0 0.927 0.217 1.665 0.652 2.213 0.435 0.545 1.022 0.817 1.764 0.817 0.419 0 0.786-0.045 1.1-0.136s0.574-0.244 0.78-0.46v-1.856h-1.962v-0.885h3.073v3.030z"></path>
</symbol>
<symbol id="icon-Logo" viewBox="0 0 29 32">
<path fill="#00d7fe" style="fill: var(--color1, #00d7fe)" d="M0.584 0.743c-0.368 0.385-0.584 0.982-0.584 1.757v27.653c0 0.775 0.216 1.372 0.584 1.757l0.094 0.090 15.649-15.491v-0.365l-15.649-15.491-0.094 0.090z"></path>
<path fill="#000" style="fill: var(--color2, #000)" d="M21.366 20.898l-5.040-5.047v-0.357l5.042-5.045 6.087 3.46c1.706 0.971 1.706 2.558 0 3.527l-6.089 3.462z"></path>
<path fill="#000" style="fill: var(--color2, #000)" d="M21.551 21.035l-5.289-5.362-15.609 15.822c0.578 0.619 1.53 0.695 2.603 0.078l18.295-10.538z"></path>
<path fill="#000" style="fill: var(--color2, #000)" d="M21.551 10.965l-18.295-10.538c-1.073-0.618-2.026-0.541-2.603 0.078l15.609 15.822 5.289-5.362z"></path>
</symbol>
<symbol id="icon-close" viewBox="0 0 32 32">
<path fill="none" stroke="#fdfdfd" style="stroke: var(--color3, #fdfdfd)" stroke-linejoin="round" stroke-linecap="round" stroke-miterlimit="4" stroke-width="2" d="M2.5 2.5l13.5 13.5M16 16l-13.5 13.5M16 16l13.5 13.5M16 16l13.5-13.5"></path>
</symbol>
<symbol id="icon-stateclose" viewBox="0 0 32 32">
<path fill="none" stroke="#ffc954" style="stroke: var(--color4, #ffc954)" stroke-linejoin="miter" stroke-linecap="butt" stroke-miterlimit="4" stroke-width="1.3333" d="M1.333 0.667h29.333c0.368 0 0.667 0.298 0.667 0.667v29.333c0 0.368-0.298 0.667-0.667 0.667h-29.333c-0.368 0-0.667-0.298-0.667-0.667v-29.333c0-0.368 0.298-0.667 0.667-0.667z"></path>
<path fill="none" stroke="#fdfdfd" style="stroke: var(--color3, #fdfdfd)" stroke-linejoin="round" stroke-linecap="round" stroke-miterlimit="4" stroke-width="1.3333" d="M7 7l9 9M16 16l-9 9M16 16l9 9M16 16l9-9"></path>
</symbol>
<symbol id="icon-stateburger" viewBox="0 0 32 32">
<path fill="none" stroke="#ffc954" style="stroke: var(--color4, #ffc954)" stroke-linejoin="miter" stroke-linecap="butt" stroke-miterlimit="4" stroke-width="1.3333" d="M1.333 0.667h29.333c0.368 0 0.667 0.298 0.667 0.667v29.333c0 0.368-0.298 0.667-0.667 0.667h-29.333c-0.368 0-0.667-0.298-0.667-0.667v-29.333c0-0.368 0.298-0.667 0.667-0.667z"></path>
<path fill="none" stroke="#fdfdfd" style="stroke: var(--color3, #fdfdfd)" stroke-linejoin="miter" stroke-linecap="round" stroke-miterlimit="4" stroke-width="1.3333" d="M7.5 9.5h17M7.5 21.5h17M7.5 15.5h17"></path>
</symbol>
<symbol id="icon-menu-icon" viewBox="0 0 32 32">
<path stroke-linejoin="round" stroke-linecap="round" stroke-miterlimit="4" stroke-width="2.2857" d="M4 16h24M4 8h24M4 24h24"></path>
</symbol>
</defs>
</svg>
