<svg aria-hidden="true" style="position: absolute; width: 0; height: 0; overflow: hidden;" version="1.1" xmlns="http://www.w3.org/2000/svg" xmlns:xlink="http://www.w3.org/1999/xlink">
<defs>
<symbol id="icon-vector" viewBox="0 0 21 32">
<path d="M21.333 0h-5.333v4.706h5.333v-4.706z"></path>
<path d="M16 4.706h-5.333v4.706h5.333v-4.706z"></path>
<path d="M10.667 9.412h-5.333v4.706h5.333v-4.706z"></path>
<path d="M5.333 14.118h-5.333v4.706h5.333v-4.706z"></path>
<path d="M21.333 27.294h-5.333v4.706h5.333v-4.706z"></path>
<path d="M16 22.588h-5.333v4.706h5.333v-4.706z"></path>
<path d="M10.667 17.882h-5.333v4.706h5.333v-4.706z"></path>
</symbol>
<symbol id="icon-arrow" viewBox="0 0 17 32">
<path fill="none" stroke="#676869" style="stroke: var(--color1, #676869)" stroke-linejoin="round" stroke-linecap="square" stroke-miterlimit="4" stroke-width="3.3684" d="M14.004 28.48l-12.32-12.316 12.32-12.318"></path>
</symbol>
<symbol id="icon-chevron-left" viewBox="0 0 20 32">
<path stroke-linejoin="round" stroke-linecap="round" stroke-miterlimit="4" stroke-width="2" d="M18 31l-16-15 16-15"></path>
</symbol>
<symbol id="icon-close" viewBox="0 0 32 32">
<path fill="none" stroke="#fdfdfd" style="stroke: var(--color2, #fdfdfd)" stroke-linejoin="round" stroke-linecap="round" stroke-miterlimit="4" stroke-width="2" d="M2.5 2.5l13.5 13.5M16 16l-13.5 13.5M16 16l13.5 13.5M16 16l13.5-13.5"></path>
</symbol>
<symbol id="icon-stateclose" viewBox="0 0 32 32">
<path fill="none" stroke="#ffc954" style="stroke: var(--color3, #ffc954)" stroke-linejoin="miter" stroke-linecap="butt" stroke-miterlimit="4" stroke-width="1.3333" d="M1.333 0.667h29.333c0.368 0 0.667 0.298 0.667 0.667v29.333c0 0.368-0.298 0.667-0.667 0.667h-29.333c-0.368 0-0.667-0.298-0.667-0.667v-29.333c0-0.368 0.298-0.667 0.667-0.667z"></path>
<path fill="none" stroke="#fdfdfd" style="stroke: var(--color2, #fdfdfd)" stroke-linejoin="round" stroke-linecap="round" stroke-miterlimit="4" stroke-width="1.3333" d="M7 7l9 9M16 16l-9 9M16 16l9 9M16 16l9-9"></path>
</symbol>
<symbol id="icon-stateburger" viewBox="0 0 32 32">
<path fill="none" stroke="#ffc954" style="stroke: var(--color3, #ffc954)" stroke-linejoin="miter" stroke-linecap="butt" stroke-miterlimit="4" stroke-width="1.3333" d="M1.333 0.667h29.333c0.368 0 0.667 0.298 0.667 0.667v29.333c0 0.368-0.298 0.667-0.667 0.667h-29.333c-0.368 0-0.667-0.298-0.667-0.667v-29.333c0-0.368 0.298-0.667 0.667-0.667z"></path>
<path fill="none" stroke="#fdfdfd" style="stroke: var(--color2, #fdfdfd)" stroke-linejoin="miter" stroke-linecap="round" stroke-miterlimit="4" stroke-width="1.3333" d="M7.5 9.5h17M7.5 21.5h17M7.5 15.5h17"></path>
</symbol>
<symbol id="icon-menu-icon" viewBox="0 0 32 32">
<path stroke-linejoin="round" stroke-linecap="round" stroke-miterlimit="4" stroke-width="2.2857" d="M4 16h24M4 8h24M4 24h24"></path>
</symbol>
</defs>
</svg>
